<svg width="212" height="61" viewBox="0 0 212 61" fill="none" xmlns="http://www.w3.org/2000/svg">
<path d="M0 8.13333C0 3.64142 3.75161 0 8.37945 0H203.621C208.248 0 212 3.64142 212 8.13333V52.8667C212 57.3586 208.248 61 203.621 61H8.37945C3.75161 61 0 57.3586 0 52.8667V8.13333Z" fill="black"/>
<path fill-rule="evenodd" clip-rule="evenodd" d="M0 52.8667V8.13333C0 3.64142 3.7516 0 8.37945 0H203.621C208.248 0 212 3.64142 212 8.13333V52.8667C212 57.3586 208.248 61 203.621 61H8.37945C3.75161 61 0 57.3586 0 52.8667ZM1.25692 52.8667V8.13333C1.25692 4.31521 4.44578 1.22 8.37945 1.22H203.621C207.554 1.22 210.743 4.3152 210.743 8.13333V52.8667C210.743 56.6848 207.554 59.78 203.621 59.78H8.37945C4.44578 59.78 1.25692 56.6848 1.25692 52.8667Z" fill="#A6A6A6"/>
<path d="M107.418 33.2404C103.646 33.2404 100.528 36.2101 100.528 40.282C100.528 44.3206 103.613 47.3236 107.419 47.3236C111.224 47.3236 114.308 44.3538 114.308 40.282C114.308 36.2101 111.224 33.2404 107.418 33.2404ZM107.418 44.5215C105.351 44.5215 103.547 42.7522 103.547 40.2505C103.547 37.7142 105.352 35.9795 107.418 35.9795C109.484 35.9795 111.289 37.7142 111.289 40.2505C111.289 42.7522 109.484 44.5215 107.418 44.5215ZM92.4248 33.2404C88.619 33.2404 85.5346 36.2101 85.5346 40.282C85.5346 44.3206 88.619 47.3236 92.4248 47.3236C96.2302 47.3236 99.3146 44.3538 99.3146 40.282C99.3146 36.2101 96.2302 33.2404 92.4244 33.2404H92.4248ZM92.4248 44.5215C90.357 44.5215 88.554 42.7522 88.554 40.2505C88.554 37.7142 90.3588 35.9795 92.4248 35.9795C94.4922 35.9795 96.2956 37.7142 96.2956 40.2505C96.2956 42.7522 94.5231 44.5215 92.4248 44.5215ZM74.6096 35.4099V38.3796H81.5644C81.3668 40.0481 80.8107 41.2829 79.9898 42.1178C78.9732 43.152 77.3983 44.2873 74.6096 44.2873C70.3109 44.2873 66.9984 40.7501 66.9984 36.3779C66.9984 32.0056 70.3127 28.4015 74.6096 28.4015C76.9381 28.4015 78.6125 29.3363 79.8591 30.5381L81.925 28.4348C80.1856 26.7334 77.857 25.4321 74.6096 25.4321C68.736 25.4321 63.8145 30.3371 63.8145 36.3113C63.8145 42.2859 68.736 47.1909 74.6096 47.1909C77.7917 47.1909 80.1547 46.1235 82.0572 44.12C83.9928 42.1511 84.5834 39.3805 84.5834 37.1449C84.5834 36.4444 84.5184 35.81 84.4188 35.2758L74.6096 35.4099ZM147.51 37.7124C146.952 36.1436 145.181 33.2404 141.637 33.2404C138.093 33.2404 135.173 36.0775 135.173 40.282C135.173 44.2193 138.093 47.3236 141.965 47.3236C145.115 47.3236 146.919 45.3547 147.673 44.2193L145.345 42.6177C144.557 43.7863 143.507 44.553 141.965 44.553C140.423 44.553 139.341 43.8525 138.651 42.4167L147.804 38.5126L147.51 37.7124ZM138.192 40.0828C138.127 37.3787 140.26 35.9777 141.768 35.9777C142.982 35.9777 143.966 36.5785 144.326 37.48L138.192 40.0828ZM130.744 46.8569H133.764V26.232H130.744V46.8569ZM125.824 34.8091H125.726C125.038 33.9741 123.758 33.2404 122.117 33.2404C118.672 33.2404 115.555 36.3446 115.555 40.282C115.555 44.2193 118.704 47.2907 122.117 47.2907C123.757 47.2907 125.036 46.5566 125.726 45.6883H125.824V46.6896C125.824 49.3937 124.413 50.8276 122.149 50.8276C120.312 50.8276 119.163 49.4598 118.704 48.3245L116.08 49.4598C116.834 51.3289 118.837 53.6314 122.149 53.6314C125.692 53.6314 128.679 51.4952 128.679 46.3227V33.6738H125.824V34.8091ZM122.379 44.5215C120.312 44.5215 118.574 42.7522 118.574 40.2838C118.574 37.8154 120.313 36.0124 122.379 36.0124C124.414 36.0124 126.054 37.8154 126.054 40.2838C126.053 42.7189 124.413 44.5215 122.379 44.5215ZM161.585 26.2324H154.367V46.8569H157.387V39.0469H161.585C164.932 39.0469 168.212 36.5766 168.212 32.6396C168.212 28.7023 164.932 26.232 161.585 26.232V26.2324ZM161.683 36.1787H157.417V29.102H161.683C163.914 29.102 165.226 31.0044 165.226 32.6393C165.195 34.2413 163.916 36.1787 161.683 36.1787ZM180.254 33.2071C178.089 33.2071 175.825 34.1751 174.906 36.3779L177.564 37.5132C178.155 36.3778 179.205 36.011 180.321 36.011C181.896 36.011 183.47 36.9786 183.503 38.68V38.881C182.945 38.5473 181.798 38.0792 180.354 38.0792C177.467 38.0792 174.545 39.7145 174.545 42.7189C174.545 45.4892 176.908 47.2574 179.533 47.2574C181.567 47.2574 182.682 46.3227 183.371 45.2221H183.469V46.824H186.388V38.9138C186.356 35.2768 183.699 33.2068 180.254 33.2068V33.2071ZM179.893 44.4883C178.909 44.4883 177.53 43.9869 177.53 42.7537C177.53 41.1517 179.236 40.5509 180.712 40.5509C182.024 40.5509 182.648 40.8513 183.469 41.2514C183.239 43.1538 181.631 44.4883 179.893 44.4883ZM196.92 33.6756L193.475 42.5859H193.377L189.802 33.6752H186.555L191.935 46.1564L188.883 53.1319H192.032L200.267 33.6752H196.92L196.92 33.6756ZM169.886 46.8569H172.905V26.232H169.886V46.8569Z" fill="white"/>
<path d="M69.747 19.736C68.8353 19.736 67.9952 19.5153 67.2265 19.0739C66.4578 18.6324 65.8456 18.0288 65.3897 17.263C64.9428 16.4882 64.7194 15.6278 64.7194 14.6819C64.7194 13.7359 64.9428 12.88 65.3897 12.1142C65.8456 11.3394 66.4578 10.7313 67.2265 10.2899C67.9952 9.84841 68.8353 9.62769 69.747 9.62769C70.471 9.62769 71.1458 9.75832 71.7715 10.0196C72.3972 10.2809 72.92 10.6457 73.3401 11.1142L72.2944 12.1683C71.9815 11.8169 71.6062 11.5467 71.1682 11.3575C70.7392 11.1683 70.261 11.0737 69.7336 11.0737C69.1169 11.0737 68.5404 11.2223 68.0041 11.5196C67.4678 11.8169 67.0388 12.2404 66.717 12.7899C66.3953 13.3395 66.2344 13.9701 66.2344 14.6819C66.2344 15.3936 66.3953 16.0242 66.717 16.5738C67.0388 17.1234 67.4678 17.5468 68.0041 17.8441C68.5404 18.1414 69.1214 18.2901 69.747 18.2901C70.3191 18.2901 70.7973 18.2045 71.1816 18.0333C71.5659 17.8621 71.91 17.6324 72.2139 17.3441C72.4106 17.1459 72.5759 16.8981 72.71 16.6008C72.853 16.3035 72.9469 15.9792 72.9916 15.6278H69.7336V14.2764H74.4127C74.4574 14.5287 74.4797 14.79 74.4797 15.0603C74.4797 15.6729 74.3859 16.263 74.1982 16.8306C74.0105 17.3891 73.7111 17.8756 73.2999 18.2901C72.3972 19.254 71.2129 19.736 69.747 19.736Z" fill="white"/>
<path d="M75.878 9.84391H81.7101V11.2899H77.3796V13.9656H81.281V15.3981H77.3796V18.0738H81.7101V19.5198H75.878V9.84391Z" fill="white"/>
<path d="M85.1854 11.2899H82.504V9.84391H89.3685V11.2899H86.687V19.5198H85.1854V11.2899Z" fill="white"/>
<path d="M93.2941 9.84391H94.7957V19.5198H93.2941V9.84391Z" fill="white"/>
<path d="M98.5952 11.2899H95.9137V9.84391H102.778V11.2899H100.097V19.5198H98.5952V11.2899Z" fill="white"/>
<path d="M110.933 19.736C110.004 19.736 109.159 19.5153 108.399 19.0739C107.64 18.6234 107.041 18.0108 106.603 17.236C106.174 16.4612 105.959 15.6098 105.959 14.6819C105.959 13.7539 106.174 12.907 106.603 12.1413C107.041 11.3665 107.64 10.7538 108.399 10.3034C109.159 9.85292 110.004 9.62769 110.933 9.62769C111.863 9.62769 112.703 9.85292 113.454 10.3034C114.214 10.7538 114.813 11.3665 115.25 12.1413C115.688 12.907 115.907 13.7539 115.907 14.6819C115.907 15.6098 115.688 16.4612 115.25 17.236C114.821 18.0108 114.227 18.6234 113.467 19.0739C112.708 19.5153 111.863 19.736 110.933 19.736ZM110.933 18.2901C111.568 18.2901 112.149 18.1369 112.676 17.8306C113.204 17.5243 113.619 17.1008 113.923 16.5603C114.227 16.0107 114.379 15.3846 114.379 14.6819C114.379 13.9791 114.227 13.3575 113.923 12.817C113.619 12.2674 113.204 11.8395 112.676 11.5331C112.149 11.2268 111.568 11.0737 110.933 11.0737C110.299 11.0737 109.718 11.2268 109.19 11.5331C108.663 11.8395 108.243 12.2674 107.93 12.817C107.626 13.3575 107.474 13.9791 107.474 14.6819C107.474 15.3846 107.626 16.0107 107.93 16.5603C108.243 17.1008 108.663 17.5243 109.19 17.8306C109.718 18.1369 110.299 18.2901 110.933 18.2901Z" fill="white"/>
<path d="M117.288 9.84391H119.071L123.362 16.8846H123.442L123.362 15.0197V9.84391H124.85V19.5198H123.281L118.776 12.1142H118.696L118.776 13.9791V19.5198H117.288V9.84391Z" fill="white"/>
<path d="M44.2235 36.9916C48.8872 34.4175 52.4231 32.4562 52.7278 32.3039C53.7024 31.7826 54.7094 30.4034 52.7278 29.3322C52.088 28.9954 48.6432 27.0949 44.2235 24.6445L38.0969 30.8637L44.2232 36.9916H44.2235Z" fill="#FFD900"/>
<path d="M38.0968 30.8638L18.5883 50.6267C19.0458 50.6878 19.5628 50.5656 20.1726 50.2288C21.4523 49.525 35.0172 42.0786 44.2237 36.993L38.0968 30.8638Z" fill="#F43249"/>
<path d="M38.0969 30.8638L44.2232 24.6749C44.2232 24.6749 21.5449 12.2348 20.1724 11.5008C19.6561 11.1921 19.0767 11.1009 18.5583 11.1921L38.0969 30.8635V30.8638Z" fill="#00EE76"/>
<path d="M38.0969 30.864L18.558 11.1926C17.7649 11.3768 17.0947 12.081 17.0947 13.5205V48.298C17.0947 49.6164 17.6134 50.5659 18.588 50.6571L38.0965 30.8636L38.0969 30.864Z" fill="#00D3FF"/>
</svg>
