<svg width="60" height="60" viewBox="0 0 60 60" fill="none" xmlns="http://www.w3.org/2000/svg">
<path fill-rule="evenodd" clip-rule="evenodd" d="M19.5349 21.6279C19.5349 15.8482 24.2203 11.1628 30 11.1628C35.7797 11.1628 40.4651 15.8482 40.4651 21.6279C40.4651 27.4076 35.7797 32.093 30 32.093C24.2203 32.093 19.5349 27.4076 19.5349 21.6279ZM30 15.3488C26.5322 15.3488 23.7209 18.1601 23.7209 21.6279C23.7209 25.0957 26.5322 27.907 30 27.907C33.4678 27.907 36.2791 25.0957 36.2791 21.6279C36.2791 18.1601 33.4678 15.3488 30 15.3488Z" fill="white"/>
<path fill-rule="evenodd" clip-rule="evenodd" d="M0 30C0 13.4315 13.4315 0 30 0C46.5685 0 60 13.4315 60 30C60 46.5685 46.5685 60 30 60C13.4315 60 0 46.5685 0 30ZM30 4.18605C15.7433 4.18605 4.18605 15.7433 4.18605 30C4.18605 37.1039 7.05563 43.5377 11.6989 48.2052C12.2023 45.4895 13.1915 42.929 15.1768 40.87C18.1466 37.7902 22.8953 36.2791 29.9999 36.2791C37.1044 36.2791 41.8531 37.7902 44.8229 40.87C46.8083 42.9291 47.7975 45.4896 48.3009 48.2055C52.9443 43.5379 55.814 37.1041 55.814 30C55.814 15.7433 44.2567 4.18605 30 4.18605ZM44.494 51.3639C44.2097 47.9818 43.4753 45.5032 41.8095 43.7757C39.9971 41.8961 36.6388 40.4651 29.9999 40.4651C23.3609 40.4651 20.0026 41.8961 18.1902 43.7757C16.5245 45.5031 15.7901 47.9817 15.5057 51.3637C19.6377 54.1725 24.6272 55.814 30 55.814C35.3727 55.814 40.3621 54.1726 44.494 51.3639Z" fill="white"/>
<path fill-rule="evenodd" clip-rule="evenodd" d="M19.5349 21.6279C19.5349 15.8482 24.2203 11.1628 30 11.1628C35.7797 11.1628 40.4651 15.8482 40.4651 21.6279C40.4651 27.4076 35.7797 32.093 30 32.093C24.2203 32.093 19.5349 27.4076 19.5349 21.6279ZM30 15.3488C26.5322 15.3488 23.7209 18.1601 23.7209 21.6279C23.7209 25.0957 26.5322 27.907 30 27.907C33.4678 27.907 36.2791 25.0957 36.2791 21.6279C36.2791 18.1601 33.4678 15.3488 30 15.3488Z" stroke="#FAF8F5"/>
<path fill-rule="evenodd" clip-rule="evenodd" d="M0 30C0 13.4315 13.4315 0 30 0C46.5685 0 60 13.4315 60 30C60 46.5685 46.5685 60 30 60C13.4315 60 0 46.5685 0 30ZM30 4.18605C15.7433 4.18605 4.18605 15.7433 4.18605 30C4.18605 37.1039 7.05563 43.5377 11.6989 48.2052C12.2023 45.4895 13.1915 42.929 15.1768 40.87C18.1466 37.7902 22.8953 36.2791 29.9999 36.2791C37.1044 36.2791 41.8531 37.7902 44.8229 40.87C46.8083 42.9291 47.7975 45.4896 48.3009 48.2055C52.9443 43.5379 55.814 37.1041 55.814 30C55.814 15.7433 44.2567 4.18605 30 4.18605ZM44.494 51.3639C44.2097 47.9818 43.4753 45.5032 41.8095 43.7757C39.9971 41.8961 36.6388 40.4651 29.9999 40.4651C23.3609 40.4651 20.0026 41.8961 18.1902 43.7757C16.5245 45.5031 15.7901 47.9817 15.5057 51.3637C19.6377 54.1725 24.6272 55.814 30 55.814C35.3727 55.814 40.3621 54.1726 44.494 51.3639Z" stroke="#FAF8F5"/>
</svg>
