<svg width="60" height="60" viewBox="0 0 60 60" fill="none" xmlns="http://www.w3.org/2000/svg">
<path d="M28.9904 25.7493C29.2421 25.1846 30.0436 25.1846 30.2953 25.7493L32.139 29.8856C32.2428 30.1185 32.4629 30.2784 32.7165 30.3052L37.2202 30.7805C37.8349 30.8454 38.0826 31.6076 37.6234 32.0214L34.2592 35.0532C34.0698 35.2239 33.9857 35.4826 34.0386 35.732L34.9783 40.1622C35.1066 40.7669 34.4582 41.238 33.9227 40.9291L29.9997 38.6665C29.7789 38.5391 29.5068 38.5391 29.286 38.6665L25.363 40.9291C24.8275 41.238 24.1791 40.7669 24.3074 40.1622L25.247 35.732C25.3 35.4826 25.2159 35.2239 25.0265 35.0532L21.6623 32.0214C21.2031 31.6076 21.4508 30.8454 22.0655 30.7805L26.5692 30.3052C26.8228 30.2784 27.0428 30.1185 27.1467 29.8856L28.9904 25.7493Z" fill="white"/>
<path fill-rule="evenodd" clip-rule="evenodd" d="M15.9315 4.91328e-05L15.6749 2.40989e-05C13.4622 -0.000302773 12.0463 -0.000511866 10.8225 0.23039C5.44821 1.24439 1.24439 5.44821 0.23039 10.8225C-0.000511866 12.0463 -0.000302773 13.4622 2.40989e-05 15.6749L4.91328e-05 15.9315V35.5714L4.81791e-05 35.7323C1.4491e-06 40.8486 -3.52674e-05 44.9066 0.427116 48.0837C0.867021 51.3557 1.79501 54.0124 3.89134 56.1087C5.98768 58.205 8.64437 59.133 11.9163 59.5729C15.0935 60.0001 19.1515 60 24.2678 60H24.2679H24.4286H35.5715H35.7322H35.7322C40.8486 60 44.9066 60.0001 48.0837 59.5729C51.3557 59.133 54.0124 58.205 56.1087 56.1087C58.205 54.0124 59.133 51.3557 59.5729 48.0837C60.0001 44.9066 60 40.8486 60 35.7322V35.7322V35.5714V29.437V29.292C60.0001 25.7487 60.0001 22.8873 59.7153 20.6222C59.42 18.2728 58.7887 16.2689 57.3069 14.6213C57.0592 14.3459 56.797 14.0837 56.5216 13.836C54.874 12.3542 52.8701 11.723 50.5207 11.4276C48.2557 11.1428 45.3942 11.1428 41.8509 11.1429L41.7059 11.1429H40.6649C37.3301 11.1429 36.0766 11.1238 34.9341 10.7981C34.2697 10.6088 33.6293 10.3435 33.0256 10.0076C31.9875 9.43001 31.0876 8.55715 28.7295 6.1991L27.1967 4.66626L27.1225 4.59207L27.1225 4.59204C26.4316 3.90106 25.9845 3.45388 25.5063 3.05747C23.4489 1.35199 20.9251 0.306571 18.2644 0.0577598C17.6459 -7.19838e-05 17.0135 -2.64459e-05 16.0364 4.4126e-05L15.9315 4.91328e-05ZM11.6171 4.4418C12.3945 4.29513 13.3755 4.28576 15.9315 4.28576C17.0485 4.28576 17.4704 4.28793 17.8653 4.32485C19.6678 4.4934 21.3775 5.20159 22.7712 6.35692C23.0765 6.61005 23.3764 6.90688 24.1662 7.69671L25.6991 9.22956L25.9202 9.45074L25.9202 9.45076C27.9802 11.5116 29.3162 12.8482 30.942 13.7527C31.8332 14.2485 32.7785 14.6401 33.7593 14.9197C35.5485 15.4297 37.4383 15.4293 40.3521 15.4287L40.6649 15.4286H41.7059C45.4286 15.4286 48.0197 15.4326 49.9861 15.6798C51.899 15.9203 52.92 16.3608 53.6556 17.0225C53.8187 17.1691 53.9738 17.3243 54.1204 17.4873C54.7821 18.2229 55.2226 19.2439 55.4631 21.1568C55.7103 23.1232 55.7143 25.7143 55.7143 29.437V35.5714C55.7143 40.8848 55.7097 44.6543 55.3254 47.5126C54.9494 50.3094 54.2456 51.9109 53.0783 53.0782C51.9109 54.2456 50.3094 54.9494 47.5127 55.3254C44.6543 55.7097 40.8848 55.7143 35.5715 55.7143H24.4286C19.1152 55.7143 15.3458 55.7097 12.4874 55.3254C9.69066 54.9494 8.08913 54.2456 6.9218 53.0782C5.75447 51.9109 5.05062 50.3094 4.67461 47.5126C4.29031 44.6543 4.28576 40.8848 4.28576 35.5714V15.9315C4.28576 13.3755 4.29513 12.3945 4.4418 11.6171C5.1287 7.97645 7.97645 5.1287 11.6171 4.4418Z" fill="white"/>
</svg>
