<svg width="212" height="61" viewBox="0 0 212 61" fill="none" xmlns="http://www.w3.org/2000/svg">
<g id="mobile-icon-app-store">
<g id="Group">
<path id="Vector" d="M210.822 53.9648C210.822 57.2156 208.123 59.8488 204.785 59.8488H7.2226C3.88603 59.8488 1.17773 57.2156 1.17773 53.9648V7.04226C1.17773 3.79303 3.88603 1.15063 7.2226 1.15063H204.784C208.123 1.15063 210.821 3.79303 210.821 7.04226L210.822 53.9648Z" fill="black"/>
<path id="path16" d="M204.148 1.22191C207.784 1.22191 210.742 4.09463 210.742 7.625V53.375C210.742 56.9054 207.784 59.7781 204.148 59.7781H7.85185C4.21644 59.7781 1.25826 56.9054 1.25826 53.375V7.625C1.25826 4.09463 4.21644 1.22191 7.85185 1.22191H204.148ZM204.148 8.61728e-07H7.85185C3.5353 8.61728e-07 0 3.43316 0 7.625V53.375C0 57.5668 3.5353 61 7.85185 61H204.148C208.465 61 212 57.5668 212 53.375V7.625C212 3.43316 208.465 8.61728e-07 204.148 8.61728e-07Z" fill="#A6A6A6"/>
<g id="Group_2">
<g id="Group_3">
<g id="Vector_2">
<path d="M47.3122 30.1706C47.2667 25.2556 51.4564 22.8644 51.648 22.753C49.2752 19.3935 45.5974 18.9344 44.305 18.8978C41.216 18.5822 38.2198 20.6928 36.6463 20.6928C35.0414 20.6928 32.6183 18.9283 30.0067 18.9802C26.6462 19.0305 23.5023 20.92 21.778 23.8541C18.2195 29.8367 20.8735 38.6283 24.2827 43.4641C25.9882 45.8324 27.981 48.4767 30.5894 48.3837C33.1412 48.2815 34.0944 46.8038 37.1739 46.8038C40.2251 46.8038 41.1203 48.3837 43.7805 48.3242C46.5192 48.2815 48.2435 45.9452 49.8892 43.5556C51.86 40.8411 52.6515 38.1677 52.6829 38.0305C52.6185 38.0091 47.364 36.0617 47.3122 30.1706Z" fill="white"/>
<path d="M42.287 15.7167C43.6595 14.0499 44.5986 11.7822 44.3379 9.48096C42.3514 9.56636 39.8671 10.8153 38.4365 12.4456C37.1708 13.8821 36.0401 16.2367 36.3322 18.451C38.5637 18.6127 40.8549 17.3576 42.287 15.7167Z" fill="white"/>
</g>
</g>
</g>
<g id="Group_4">
<path id="Vector_3" d="M84.2425 48.0435H80.6762L78.7226 42.0823H71.9323L70.0715 48.0435H66.5994L73.3268 27.7488H77.482L84.2425 48.0435ZM78.1337 39.5813L76.3671 34.2819C76.1802 33.7405 75.83 32.4656 75.3133 30.4587H75.2505C75.0448 31.3219 74.7135 32.5968 74.2581 34.2819L72.5228 39.5813H78.1337Z" fill="white"/>
<path id="Vector_4" d="M101.543 40.547C101.543 43.0358 100.851 45.0031 99.4654 46.4473C98.2248 47.7328 96.6843 48.3749 94.8454 48.3749C92.8605 48.3749 91.4346 47.6825 90.5662 46.2978H90.5033V54.0067H87.1553V38.2275C87.1553 36.6629 87.1129 35.057 87.0312 33.41H89.9757L90.1626 35.7296H90.2254C91.3419 33.9819 93.0363 33.1096 95.3102 33.1096C97.0879 33.1096 98.5719 33.7913 99.7591 35.1562C100.949 36.5226 101.543 38.319 101.543 40.547ZM98.1322 40.666C98.1322 39.2416 97.8024 38.0674 97.1397 37.1432C96.4158 36.1794 95.4437 35.6975 94.2251 35.6975C93.3991 35.6975 92.6485 35.9659 91.9779 36.4951C91.3058 37.0289 90.8661 37.7258 90.6604 38.5889C90.5567 38.9915 90.5049 39.3209 90.5049 39.5802V42.0202C90.5049 43.0846 90.841 43.9829 91.5131 44.7164C92.1852 45.4499 93.0583 45.8159 94.1325 45.8159C95.3935 45.8159 96.3749 45.3432 97.0769 44.4007C97.7804 43.4567 98.1322 42.2123 98.1322 40.666Z" fill="white"/>
<path id="Vector_5" d="M118.875 40.547C118.875 43.0358 118.183 45.0031 116.796 46.4473C115.557 47.7328 114.017 48.3749 112.178 48.3749C110.193 48.3749 108.767 47.6825 107.9 46.2978H107.837V54.0067H104.489V38.2275C104.489 36.6629 104.447 35.057 104.365 33.41H107.31L107.497 35.7296H107.559C108.674 33.9819 110.369 33.1096 112.644 33.1096C114.42 33.1096 115.904 33.7913 117.095 35.1562C118.28 36.5226 118.875 38.319 118.875 40.547ZM115.465 40.666C115.465 39.2416 115.133 38.0674 114.471 37.1432C113.747 36.1794 112.778 35.6975 111.558 35.6975C110.73 35.6975 109.981 35.9659 109.309 36.4951C108.637 37.0289 108.199 37.7258 107.993 38.5889C107.891 38.9915 107.837 39.3209 107.837 39.5802V42.0202C107.837 43.0846 108.173 43.9829 108.842 44.7164C109.514 45.4484 110.388 45.8159 111.465 45.8159C112.726 45.8159 113.707 45.3432 114.409 44.4007C115.113 43.4567 115.465 42.2123 115.465 40.666Z" fill="white"/>
<path id="Vector_6" d="M138.254 42.3524C138.254 44.0787 137.637 45.4833 136.398 46.5675C135.036 47.7525 133.141 48.3442 130.705 48.3442C128.456 48.3442 126.653 47.9233 125.289 47.0799L126.065 44.37C127.534 45.2332 129.147 45.6663 130.904 45.6663C132.165 45.6663 133.147 45.3887 133.852 44.8367C134.554 44.2846 134.904 43.5435 134.904 42.6193C134.904 41.7958 134.615 41.1019 134.036 40.5392C133.459 39.9765 132.497 39.4534 131.153 38.97C127.494 37.6448 125.666 35.7034 125.666 33.1506C125.666 31.4822 126.306 30.1143 127.589 29.0499C128.868 27.9839 130.573 27.4517 132.706 27.4517C134.607 27.4517 136.187 27.7734 137.448 28.4155L136.611 31.0659C135.433 30.4437 134.102 30.1326 132.611 30.1326C131.434 30.1326 130.513 30.4147 129.854 30.9759C129.296 31.4777 129.017 32.0892 129.017 32.8136C129.017 33.6157 129.336 34.2791 129.976 34.8006C130.534 35.2825 131.547 35.8041 133.017 36.3668C134.815 37.0698 136.135 37.8918 136.985 38.8343C137.831 39.7737 138.254 40.9494 138.254 42.3524Z" fill="white"/>
<path id="Vector_7" d="M149.323 35.8497H145.633V42.9547C145.633 44.7618 146.283 45.6646 147.586 45.6646C148.185 45.6646 148.681 45.6143 149.074 45.5136L149.166 47.9826C148.507 48.222 147.638 48.3425 146.563 48.3425C145.24 48.3425 144.207 47.9506 143.461 47.1683C142.718 46.3844 142.345 45.0699 142.345 43.2231V35.8467H140.146V33.4067H142.345V30.7272L145.633 29.7634V33.4067H149.323V35.8497Z" fill="white"/>
<path id="Vector_8" d="M165.974 40.6062C165.974 42.8556 165.311 44.7024 163.989 46.1465C162.602 47.6334 160.762 48.3746 158.467 48.3746C156.256 48.3746 154.496 47.6624 153.183 46.238C151.87 44.8137 151.214 43.0157 151.214 40.8487C151.214 38.581 151.889 36.7236 153.244 35.2794C154.596 33.8337 156.421 33.1108 158.716 33.1108C160.927 33.1108 162.706 33.823 164.049 35.2489C165.333 36.6321 165.974 38.4178 165.974 40.6062ZM162.5 40.7114C162.5 39.3618 162.203 38.2043 161.602 37.239C160.9 36.0709 159.896 35.4883 158.596 35.4883C157.25 35.4883 156.228 36.0724 155.526 37.239C154.925 38.2059 154.628 39.3816 154.628 40.7724C154.628 42.1221 154.925 43.2795 155.526 44.2433C156.25 45.4115 157.261 45.994 158.566 45.994C159.845 45.994 160.848 45.3993 161.572 44.2128C162.189 43.2292 162.5 42.0595 162.5 40.7114Z" fill="white"/>
<path id="Vector_9" d="M176.856 36.2694C176.525 36.2099 176.172 36.1794 175.801 36.1794C174.623 36.1794 173.713 36.611 173.072 37.4757C172.514 38.2382 172.235 39.202 172.235 40.3656V48.0439H168.888L168.92 38.0186C168.92 36.3319 168.877 34.7963 168.794 33.4116H171.71L171.833 36.2115H171.926C172.279 35.2492 172.836 34.4745 173.6 33.8935C174.345 33.3704 175.151 33.1096 176.019 33.1096C176.329 33.1096 176.608 33.131 176.856 33.1691V36.2694Z" fill="white"/>
<path id="Vector_10" d="M191.83 40.0347C191.83 40.6173 191.791 41.1083 191.708 41.5094H181.664C181.703 42.9551 182.188 44.0607 183.121 44.8232C183.967 45.5049 185.062 45.8465 186.406 45.8465C187.893 45.8465 189.25 45.6162 190.47 45.1542L190.995 47.4112C189.569 48.0151 187.885 48.3155 185.943 48.3155C183.606 48.3155 181.772 47.6475 180.437 46.3132C179.105 44.9788 178.438 43.1869 178.438 40.9391C178.438 38.7324 179.058 36.8948 180.3 35.4292C181.601 33.8646 183.358 33.0823 185.569 33.0823C187.741 33.0823 189.385 33.8646 190.502 35.4292C191.386 36.6721 191.83 38.2093 191.83 40.0347ZM188.638 39.1914C188.66 38.2276 188.441 37.395 187.987 36.6919C187.408 35.7876 186.518 35.3362 185.319 35.3362C184.225 35.3362 183.334 35.7769 182.654 36.6614C182.097 37.3645 181.766 38.2078 181.664 39.1899H188.638V39.1914Z" fill="white"/>
</g>
<g id="Group_5">
<g id="Group_6">
<path id="Vector_11" d="M77.0266 15.264C77.0266 17.0589 76.4722 18.4101 75.3651 19.3175C74.3397 20.1547 72.8824 20.5741 70.9948 20.5741C70.0588 20.5741 69.258 20.5344 68.5874 20.4551V10.6478C69.4621 10.5106 70.4043 10.4404 71.4219 10.4404C73.22 10.4404 74.5752 10.8202 75.4892 11.5796C76.5131 12.4382 77.0266 13.6658 77.0266 15.264ZM75.2913 15.3082C75.2913 14.1447 74.9741 13.2525 74.3397 12.6303C73.7053 12.0097 72.7787 11.6986 71.5586 11.6986C71.0403 11.6986 70.5991 11.7321 70.2332 11.8023V19.258C70.4357 19.2885 70.8063 19.3022 71.345 19.3022C72.6044 19.3022 73.5765 18.9621 74.2612 18.282C74.9458 17.6018 75.2913 16.6106 75.2913 15.3082Z" fill="white"/>
<path id="Vector_12" d="M86.2275 16.8317C86.2275 17.9374 85.9024 18.8432 85.2523 19.5539C84.5707 20.2843 83.6678 20.6488 82.5402 20.6488C81.4535 20.6488 80.5883 20.2996 79.9428 19.5981C79.299 18.8981 78.9771 18.0151 78.9771 16.9507C78.9771 15.8374 79.3084 14.924 79.9742 14.2148C80.6401 13.5057 81.5352 13.1504 82.6627 13.1504C83.7494 13.1504 84.6225 13.4996 85.2837 14.1996C85.9118 14.8797 86.2275 15.7581 86.2275 16.8317ZM84.5205 16.8836C84.5205 16.2202 84.3728 15.6514 84.0792 15.1771C83.7337 14.6037 83.2422 14.317 82.603 14.317C81.9419 14.317 81.4394 14.6037 81.0939 15.1771C80.7987 15.6514 80.6526 16.2294 80.6526 16.9126C80.6526 17.5759 80.8003 18.1448 81.0939 18.619C81.4504 19.1924 81.9466 19.4791 82.5873 19.4791C83.2155 19.4791 83.7086 19.1879 84.0635 18.6038C84.3681 18.1204 84.5205 17.547 84.5205 16.8836Z" fill="white"/>
<path id="Vector_13" d="M98.5643 13.2969L96.248 20.4857H94.7404L93.7809 17.364C93.5375 16.5848 93.3396 15.8101 93.1857 15.0415H93.1559C93.013 15.8314 92.8151 16.6046 92.5607 17.364L91.5416 20.4857H90.0167L87.8386 13.2969H89.5299L90.3669 16.7144C90.5695 17.5226 90.736 18.2928 90.8694 19.0217H90.8993C91.0218 18.4209 91.2243 17.6553 91.5101 16.7296L92.5607 13.2984H93.9018L94.9084 16.6564C95.1518 17.4754 95.3497 18.2638 95.502 19.0232H95.5476C95.6591 18.2836 95.8271 17.4952 96.0501 16.6564L96.9483 13.2984H98.5643V13.2969Z" fill="white"/>
<path id="Vector_14" d="M107.096 20.4856H105.45V16.3681C105.45 15.0993 104.954 14.4649 103.959 14.4649C103.47 14.4649 103.076 14.6387 102.77 14.988C102.467 15.3372 102.313 15.7489 102.313 16.2202V20.4841H100.667V15.3509C100.667 14.7196 100.647 14.0348 100.607 13.2937H102.054L102.131 14.4176H102.176C102.368 14.0684 102.654 13.7802 103.029 13.5499C103.475 13.2815 103.974 13.1458 104.521 13.1458C105.212 13.1458 105.786 13.3623 106.243 13.7969C106.812 14.3292 107.096 15.1237 107.096 16.179V20.4856Z" fill="white"/>
<path id="Vector_15" d="M111.634 20.4857H109.99V9.99829H111.634V20.4857Z" fill="white"/>
<path id="Vector_16" d="M121.324 16.8317C121.324 17.9374 120.999 18.8432 120.348 19.5539C119.667 20.2843 118.762 20.6488 117.636 20.6488C116.548 20.6488 115.683 20.2996 115.039 19.5981C114.395 18.8981 114.073 18.0151 114.073 16.9507C114.073 15.8374 114.405 14.924 115.07 14.2148C115.736 13.5057 116.631 13.1504 117.757 13.1504C118.846 13.1504 119.717 13.4996 120.38 14.1996C121.008 14.8797 121.324 15.7581 121.324 16.8317ZM119.615 16.8836C119.615 16.2202 119.467 15.6514 119.174 15.1771C118.83 14.6037 118.337 14.317 117.699 14.317C117.037 14.317 116.534 14.6037 116.19 15.1771C115.895 15.6514 115.749 16.2294 115.749 16.9126C115.749 17.5759 115.896 18.1448 116.19 18.619C116.547 19.1924 117.043 19.4791 117.684 19.4791C118.312 19.4791 118.803 19.1879 119.158 18.6038C119.464 18.1204 119.615 17.547 119.615 16.8836Z" fill="white"/>
<path id="Vector_17" d="M129.289 20.4856H127.811L127.688 19.6576H127.643C127.137 20.3179 126.416 20.6488 125.48 20.6488C124.782 20.6488 124.216 20.4307 123.791 19.9976C123.404 19.6042 123.211 19.1147 123.211 18.5336C123.211 17.6552 123.588 16.9858 124.347 16.5222C125.103 16.0586 126.168 15.8313 127.539 15.842V15.7078C127.539 14.7608 127.027 14.288 126.002 14.288C125.272 14.288 124.628 14.4665 124.072 14.8203L123.737 13.7711C124.425 13.3578 125.275 13.1504 126.277 13.1504C128.211 13.1504 129.182 14.1416 129.182 16.1241V18.7715C129.182 19.4898 129.218 20.0617 129.289 20.4856ZM127.58 18.0151V16.9065C125.765 16.876 124.857 17.3594 124.857 18.3552C124.857 18.7304 124.961 19.011 125.173 19.1985C125.385 19.3861 125.655 19.4791 125.977 19.4791C126.338 19.4791 126.675 19.3678 126.983 19.1467C127.293 18.924 127.483 18.6419 127.553 18.2957C127.571 18.218 127.58 18.1234 127.58 18.0151Z" fill="white"/>
<path id="Vector_18" d="M138.64 20.4857H137.18L137.103 19.3313H137.057C136.591 20.2097 135.796 20.6489 134.68 20.6489C133.788 20.6489 133.045 20.3088 132.456 19.6287C131.867 18.9485 131.573 18.0655 131.573 16.9813C131.573 15.8177 131.892 14.8752 132.533 14.1554C133.153 13.4844 133.913 13.1489 134.818 13.1489C135.812 13.1489 136.508 13.4738 136.903 14.1249H136.935V9.99829H138.582V18.549C138.582 19.2489 138.601 19.894 138.64 20.4857ZM136.935 17.454V16.2554C136.935 16.048 136.919 15.8802 136.889 15.7521C136.797 15.3678 136.597 15.0445 136.294 14.7837C135.988 14.523 135.619 14.3918 135.193 14.3918C134.579 14.3918 134.099 14.6282 133.745 15.1025C133.395 15.5767 133.218 16.1822 133.218 16.9218C133.218 17.6324 133.386 18.2089 133.723 18.6527C134.08 19.1254 134.56 19.3618 135.162 19.3618C135.702 19.3618 136.134 19.1651 136.462 18.7701C136.779 18.4056 136.935 17.9664 136.935 17.454Z" fill="white"/>
<path id="Vector_19" d="M152.715 16.8317C152.715 17.9374 152.39 18.8432 151.74 19.5539C151.059 20.2843 150.157 20.6488 149.028 20.6488C147.943 20.6488 147.078 20.2996 146.431 19.5981C145.787 18.8981 145.465 18.0151 145.465 16.9507C145.465 15.8374 145.796 14.924 146.462 14.2148C147.128 13.5057 148.023 13.1504 149.152 13.1504C150.237 13.1504 151.112 13.4996 151.772 14.1996C152.4 14.8797 152.715 15.7581 152.715 16.8317ZM151.01 16.8836C151.01 16.2202 150.862 15.6514 150.569 15.1771C150.222 14.6037 149.732 14.317 149.091 14.317C148.432 14.317 147.929 14.6037 147.582 15.1771C147.287 15.6514 147.141 16.2294 147.141 16.9126C147.141 17.5759 147.288 18.1448 147.582 18.619C147.938 19.1924 148.435 19.4791 149.075 19.4791C149.704 19.4791 150.198 19.1879 150.553 18.6038C150.856 18.1204 151.01 17.547 151.01 16.8836Z" fill="white"/>
<path id="Vector_20" d="M161.564 20.4856H159.92V16.3681C159.92 15.0993 159.424 14.4649 158.426 14.4649C157.938 14.4649 157.544 14.6387 157.239 14.988C156.935 15.3372 156.782 15.7489 156.782 16.2202V20.4841H155.135V15.3509C155.135 14.7196 155.116 14.0348 155.077 13.2937H156.522L156.599 14.4176H156.644C156.837 14.0684 157.123 13.7802 157.497 13.5499C157.944 13.2815 158.442 13.1458 158.99 13.1458C159.68 13.1458 160.254 13.3623 160.711 13.7969C161.281 14.3292 161.564 15.1237 161.564 16.179V20.4856Z" fill="white"/>
<path id="Vector_21" d="M172.64 14.4938H170.828V17.9861C170.828 18.8736 171.15 19.3174 171.788 19.3174C172.083 19.3174 172.328 19.293 172.521 19.2427L172.563 20.455C172.238 20.574 171.811 20.6335 171.285 20.6335C170.635 20.6335 170.129 20.4413 169.763 20.057C169.396 19.6727 169.214 19.0261 169.214 18.1187V14.4938H168.132V13.2967H169.214V11.9791L170.827 11.5063V13.2952H172.639V14.4938H172.64Z" fill="white"/>
<path id="Vector_22" d="M181.353 20.4857H179.705V16.3987C179.705 15.1101 179.209 14.465 178.215 14.465C177.452 14.465 176.931 14.8386 176.645 15.5859C176.596 15.743 176.568 15.9351 176.568 16.1608V20.4842H174.924V9.99829H176.568V14.3308H176.599C177.117 13.5424 177.86 13.1489 178.823 13.1489C179.504 13.1489 180.068 13.3655 180.516 13.8001C181.073 14.3415 181.353 15.1467 181.353 16.2111V20.4857Z" fill="white"/>
<path id="Vector_23" d="M190.34 16.5509C190.34 16.8376 190.318 17.0786 190.278 17.2753H185.343C185.365 17.986 185.6 18.5274 186.057 18.9025C186.475 19.238 187.014 19.4058 187.673 19.4058C188.403 19.4058 189.069 19.2929 189.669 19.0657L189.927 20.1759C189.225 20.4717 188.399 20.6196 187.442 20.6196C186.296 20.6196 185.393 20.2918 184.74 19.636C184.083 18.9803 183.758 18.1004 183.758 16.9963C183.758 15.912 184.061 15.0092 184.672 14.2894C185.31 13.5208 186.172 13.1365 187.26 13.1365C188.325 13.1365 189.134 13.5208 189.68 14.2894C190.121 14.8994 190.34 15.6542 190.34 16.5509ZM188.769 16.1377C188.782 15.6634 188.674 15.2547 188.451 14.9101C188.165 14.4663 187.73 14.2436 187.141 14.2436C186.604 14.2436 186.166 14.4602 185.831 14.8948C185.558 15.241 185.396 15.6542 185.343 16.1377H188.769Z" fill="white"/>
</g>
</g>
</g>
</g>
</svg>
